# xmcd
#
# Track frame offsets:
#	150
#	9266
#	17757
#	28743
#	39314
#	49987
#	64997
#	77367
#	90558
#	99826
#	110230
#	119426
#	132669
#	147057
#	158199
#	169276
#	180917
#	193540
#
# Disc length: 2775
#
# Revision: 2
# Processed by: cddbd v1.5.1PL0 Copyright (c) Steve Scherf et al.
# Submitted via: EasyCDDAExtractor 5.0.6
# Normalized: r1:DSETVAR1
#
DISCID=e80ad512
DTITLE=Various Artist - Country
DYEAR=1900
DGENRE=Country
TTITLE0=Frankie Lane - Rawhide
TTITLE1=Johnny Cash - Country boy
TTITLE2=Hanck Locklin - Send me the pillow
TTITLE3=Faron Young - If you Ain't Lovin
TTITLE4=Ferlin Husky - Wings of a dove
TTITLE5=John Anderson - Country Comfort
TTITLE6=Bobby Bare - The year That Clayton Delaney Died
TTITLE7=Freddy Fender - The girl who waits on tables
TTITLE8=The Harden Trio - Tippytoeing
TTITLE9=Waylon Jennings - White lighting
TTITLE10=Bob Luman - Let's think about living
TTITLE11=Georg Morgan - Red rose from the blue side of town
TTITLE12=Georg Jones - A good year for the Roses
TTITLE13=Willie Nelson - Will you remember mine
TTITLE14=Don Williams - Spend some time with me
TTITLE15=Buck Owens - Foolin' around
TTITLE16=Gene Autry - Back in the saddle again
TTITLE17=Glen Campbel - Rhinestone Cowboy
EXTD=
EXTT0=
EXTT1=
EXTT2=
EXTT3=
EXTT4=
EXTT5=
EXTT6=
EXTT7=
EXTT8=
EXTT9=
EXTT10=
EXTT11=
EXTT12=
EXTT13=
EXTT14=
EXTT15=
EXTT16=
EXTT17=
PLAYORDER=
